<?xml version="1.0" standalone="no"?>
<!DOCTYPE svg PUBLIC "-//W3C//DTD SVG 20010904//EN"
 "http://www.w3.org/TR/2001/REC-SVG-20010904/DTD/svg10.dtd">
<svg version="1.0" xmlns="http://www.w3.org/2000/svg"
 width="225.000000pt" height="225.000000pt" viewBox="0 0 225.000000 225.000000"
 preserveAspectRatio="xMidYMid meet">

<g transform="translate(0.000000,225.000000) scale(0.100000,-0.100000)"
fill="#000000" stroke="none">
<path d="M583 1860 c-113 -23 -207 -95 -258 -198 -38 -77 -46 -228 -43 -805
l3 -479 28 -24 c18 -16 40 -24 64 -24 32 0 47 11 147 109 61 60 121 114 133
120 15 8 161 11 480 11 252 0 489 5 526 10 112 16 208 89 262 198 31 63 45
197 44 452 0 258 -11 360 -48 434 -39 80 -109 146 -187 177 l-59 24 -525 2
c-289 1 -544 -3 -567 -7z m815 -356 c70 -9 102 -40 102 -99 0 -36 -5 -48 -31
-69 l-31 -26 -313 0 -313 0 -30 25 c-38 32 -46 65 -28 110 25 60 47 64 336 65
140 0 279 -3 308 -6z m-207 -403 c54 -55 34 -140 -39 -161 -48 -13 -286 -13
-335 1 -74 20 -95 110 -37 162 l30 27 176 0 176 0 29 -29z"/>
</g>
</svg>
